<svg width="467" height="87" viewBox="0 0 467 87" fill="none" xmlns="http://www.w3.org/2000/svg">
<path d="M20.2539 48C20.3206 55.2667 20.2872 61.8667 20.1539 67.8C20.0206 73.6667 19.8206 79.3333 19.5539 84.8C17.2206 85.3333 14.9539 85.7 12.7539 85.9C10.5539 86.1667 8.18724 86.2667 5.65391 86.2C5.78724 72.9333 5.35391 58.9 4.35391 44.1C3.42057 29.3 2.08724 16.7 0.353906 6.3C6.02057 5.96666 11.5206 5.5 16.8539 4.9C22.2539 4.23333 31.6206 2.79999 44.9539 0.599995C45.2872 1.53333 45.5206 2.53333 45.6539 3.6C45.7872 4.66666 45.8539 5.8 45.8539 7C45.9206 8 45.8872 9.03333 45.7539 10.1C45.6206 11.1667 45.4206 12.3 45.1539 13.5C39.3539 14.3 34.4539 14.9333 30.4539 15.4C26.4539 15.8 22.6206 16.1333 18.9539 16.4C19.2206 19.8 19.4539 23.2333 19.6539 26.7C19.8539 30.1 19.9872 33.4667 20.0539 36.8C23.5872 36.0667 26.9206 35.5333 30.0539 35.2C33.1872 34.8 36.2206 34.5667 39.1539 34.5C39.5539 36.2333 39.8539 38.0667 40.0539 40C40.2539 41.8667 40.3539 44.0667 40.3539 46.6C37.1539 46.6667 33.8539 46.8333 30.4539 47.1C27.0539 47.3 23.6539 47.6 20.2539 48ZM42.9656 54.4C42.9656 45.2667 45.3656 37.8333 50.1656 32.1C55.0323 26.3 61.299 23.4 68.9656 23.4C74.899 23.4 79.5323 25.3 82.8656 29.1C86.2656 32.8333 87.9656 38.0333 87.9656 44.7C87.9656 54.4333 85.6323 62.6 80.9656 69.2C76.299 75.7333 69.999 79 62.0656 79C56.0656 79 51.3656 76.7667 47.9656 72.3C44.6323 67.8333 42.9656 61.8667 42.9656 54.4ZM72.9656 49.7C72.9656 43.8333 72.3656 39.5 71.1656 36.7C69.9656 33.9 68.1323 32.5 65.6656 32.5C63.399 32.5 61.4656 34.4 59.8656 38.2C58.3323 41.9333 57.5656 46.6333 57.5656 52.3C57.5656 57.3 58.2323 61.5 59.5656 64.9C60.9656 68.3 62.8323 70 65.1656 70C67.3656 70 69.199 68 70.6656 64C72.199 59.9333 72.9656 55.1667 72.9656 49.7ZM107.242 55.4C107.442 59.4 107.742 63.3 108.142 67.1C108.542 70.8333 109.042 74.5 109.642 78.1C108.509 78.5 107.209 78.7667 105.742 78.9C104.276 79.1 102.609 79.1667 100.742 79.1C99.6755 79.0333 98.8089 78.9333 98.1422 78.8C97.4755 78.7333 96.8089 78.5667 96.1422 78.3C94.4089 70.1 93.1755 61.1333 92.4422 51.4C91.7089 41.6 91.6422 32.6667 92.2422 24.6C93.2422 24.2 94.3755 23.9333 95.6422 23.8C96.9089 23.6 98.4422 23.5 100.242 23.5C101.909 23.5 103.442 23.6333 104.842 23.9C106.242 24.1 107.509 24.4333 108.642 24.9C108.376 26.3 108.142 27.8333 107.942 29.5C107.742 31.1667 107.576 32.9 107.442 34.7C109.042 30.4333 111.076 27.0667 113.542 24.6C116.009 22.1333 118.542 20.9 121.142 20.9C124.409 20.9 126.942 22.2333 128.742 24.9C130.542 27.5 131.442 31.2333 131.442 36.1C131.442 37.2333 131.442 38.1333 131.442 38.8C131.442 39.4 131.409 39.9667 131.342 40.5C129.742 41.0333 127.776 41.4 125.442 41.6C123.176 41.7333 120.776 41.7333 118.242 41.6C118.309 40.2667 118.342 39.3667 118.342 38.9C118.409 38.3667 118.442 37.9 118.442 37.5C118.442 35.6333 118.209 34.2333 117.742 33.3C117.342 32.3667 116.676 31.9 115.742 31.9C114.076 31.9 112.442 34.0333 110.842 38.3C109.309 42.5 108.109 48.2 107.242 55.4ZM203.457 39.6C203.457 45.7333 202.857 52.8 201.657 60.8C200.457 68.8 199.09 75.6667 197.557 81.4C195.024 81.4 192.49 81.2333 189.957 80.9C187.49 80.6333 185.09 80.2333 182.757 79.7C184.757 71.0333 186.224 63.4333 187.157 56.9C188.157 50.3 188.657 44.6333 188.657 39.9C188.657 37.0333 188.29 34.9667 187.557 33.7C186.89 32.4333 185.757 31.8 184.157 31.8C182.624 31.8 181.09 32.7 179.557 34.5C178.09 36.2333 176.757 38.7667 175.557 42.1C175.624 42.3667 175.657 42.6667 175.657 43C175.657 43.3333 175.657 43.8667 175.657 44.6C175.657 49.7333 175.224 55.6 174.357 62.2C173.49 68.7333 172.59 73.6667 171.657 77C169.724 76.9333 167.59 76.7667 165.257 76.5C162.99 76.2333 160.524 75.8333 157.857 75.3C159.057 68.3667 159.924 62.5333 160.457 57.8C161.057 53.0667 161.357 49 161.357 45.6C161.357 42.7333 160.99 40.6667 160.257 39.4C159.59 38.1333 158.457 37.5 156.857 37.5C155.257 37.5 153.657 38.4 152.057 40.2C150.457 42 149.09 44.4667 147.957 47.6C147.89 52.7333 147.824 56.5 147.757 58.9C147.757 61.3 147.757 63.4333 147.757 65.3C147.757 68.5667 147.757 71.1333 147.757 73C147.824 74.8667 147.924 76.4 148.057 77.6C146.59 78 144.657 78.3333 142.257 78.6C139.924 78.8667 137.724 79 135.657 79C134.657 69.6 133.824 59.8 133.157 49.6C132.49 39.4 132.157 31.0333 132.157 24.5C133.357 23.9 134.957 23.4333 136.957 23.1C138.957 22.7667 141.057 22.6 143.257 22.6C144.457 22.6 145.557 22.6667 146.557 22.8C147.557 22.8667 148.524 23 149.457 23.2C149.324 24.4 149.157 25.9333 148.957 27.8C148.824 29.6 148.657 32.1 148.457 35.3C150.39 32.1667 152.657 29.8333 155.257 28.3C157.857 26.7 160.69 25.9 163.757 25.9C166.09 25.9 168.057 26.4333 169.657 27.5C171.257 28.5 172.557 30.0333 173.557 32.1C175.69 28.1667 178.224 25.2 181.157 23.2C184.09 21.2 187.357 20.2 190.957 20.2C195.157 20.2 198.29 21.8 200.357 25C202.424 28.2 203.457 33.0667 203.457 39.6ZM279.428 80.6C276.628 81.6 274.061 82.3 271.728 82.7C269.395 83.1 266.795 83.3 263.928 83.3C264.528 75.0333 264.995 65.8667 265.328 55.8C265.728 45.6667 265.995 35.1667 266.128 24.3C262.928 29.7 260.028 35.2333 257.428 40.9C254.828 46.5 252.428 52.3667 250.228 58.5C249.028 58.9 247.561 59.1333 245.828 59.2C244.161 59.2667 242.528 59.1667 240.928 58.9C238.595 52.8333 236.095 47.1333 233.428 41.8C230.761 36.4 227.895 31.2333 224.828 26.3C224.828 26.9667 224.828 27.6667 224.828 28.4C224.828 29.0667 224.828 29.7333 224.828 30.4C224.828 38.4 225.261 46.4667 226.128 54.6C226.995 62.7333 228.195 70.1667 229.728 76.9C228.328 77.3 226.261 77.6667 223.528 78C220.861 78.2667 218.295 78.4 215.828 78.4C214.428 68.9333 213.295 57.5 212.428 44.1C211.628 30.7 211.295 18.5333 211.428 7.59999C213.695 6.13333 216.095 4.9 218.628 3.89999C221.161 2.9 223.595 2.2 225.928 1.8C230.595 8.2 234.695 14.5667 238.228 20.9C241.761 27.2333 244.695 33.4333 247.028 39.5C249.628 32.8333 252.528 26.3667 255.728 20.1C258.995 13.8333 262.561 7.76666 266.428 1.9C268.695 2.23333 270.861 2.7 272.928 3.3C274.995 3.9 276.895 4.63333 278.628 5.5C279.028 14.1667 279.295 24.7333 279.428 37.2C279.561 49.6667 279.561 64.1333 279.428 80.6ZM327.116 42.9C327.116 47.1667 326.516 52.9667 325.316 60.3C324.182 67.5667 322.749 74.6333 321.016 81.5C319.082 81.5 317.082 81.3667 315.016 81.1C312.949 80.9 311.049 80.5667 309.316 80.1C309.582 78.7 309.749 77.6667 309.816 77C309.949 76.3333 310.082 75.7333 310.216 75.2C308.816 76 307.249 76.6 305.516 77C303.782 77.4 301.949 77.6 300.016 77.6C294.882 77.6 290.749 76.3 287.616 73.7C284.549 71.0333 283.016 67.5 283.016 63.1C283.016 58.5 284.882 55.0667 288.616 52.8C292.416 50.4667 298.049 49.3 305.516 49.3C306.916 49.3 308.149 49.3333 309.216 49.4C310.349 49.4 311.516 49.4333 312.716 49.5C312.716 49.2333 312.716 49 312.716 48.8C312.716 48.5333 312.716 48.2667 312.716 48C312.716 41.9333 312.216 37.6 311.216 35C310.216 32.4 308.616 31.1 306.416 31.1C304.216 31.1 302.349 32.3 300.816 34.7C299.282 37.1 298.482 40.1333 298.416 43.8C295.149 43.7333 292.449 43.1 290.316 41.9C288.182 40.6333 286.649 38.9 285.716 36.7C286.782 32.8333 289.382 29.5667 293.516 26.9C297.649 24.1667 302.416 22.8 307.816 22.8C314.149 22.8 318.949 24.5 322.216 27.9C325.482 31.3 327.116 36.3 327.116 42.9ZM298.016 64C298.016 65.9333 298.549 67.4333 299.616 68.5C300.749 69.5667 302.316 70.1 304.316 70.1C305.582 70.1 306.782 69.9333 307.916 69.6C309.049 69.2667 310.182 68.7667 311.316 68.1C311.649 65.7 311.916 63.5333 312.116 61.6C312.316 59.6667 312.449 57.8 312.516 56C307.649 55.9333 304.016 56.5667 301.616 57.9C299.216 59.1667 298.016 61.2 298.016 64ZM346.29 57.1C346.29 61.9 346.423 66.2667 346.69 70.2C346.957 74.0667 347.357 77.8667 347.89 81.6C346.157 82.2 344.257 82.6333 342.19 82.9C340.19 83.1667 337.79 83.3 334.99 83.3C334.123 77.5667 333.49 71.9 333.09 66.3C332.757 60.7 332.59 54.6333 332.59 48.1C332.59 40.7 332.823 32.7 333.29 24.1C333.823 15.4333 334.49 8.66666 335.29 3.8C337.623 3.73333 340.49 3.96666 343.89 4.5C347.357 4.96666 349.89 5.56666 351.49 6.3C350.423 11.1 349.457 17.0333 348.59 24.1C347.723 31.1 347.09 37.9333 346.69 44.6C349.69 41.7333 352.657 38.5 355.59 34.9C358.523 31.3 362.157 26.4333 366.49 20.3C368.357 21.2333 370.223 22.5333 372.09 24.2C373.957 25.8667 375.423 27.5333 376.49 29.2C373.623 32.9333 370.523 36.4667 367.19 39.8C363.857 43.0667 359.857 46.5 355.19 50.1C357.923 53.3667 361.057 56.5 364.59 59.5C368.19 62.4333 372.69 65.6667 378.09 69.2C375.757 72.1333 373.723 74.3 371.99 75.7C370.257 77.1 368.457 78.1 366.59 78.7C362.857 75.5667 359.39 72.2667 356.19 68.8C352.99 65.2667 349.757 61.1333 346.49 56.4L346.29 56.5C346.29 56.5667 346.29 56.6667 346.29 56.8C346.29 56.8667 346.29 56.9667 346.29 57.1ZM395.329 44.8C396.662 45.2 397.996 45.5 399.329 45.7C400.729 45.9 402.029 46 403.229 46C403.962 46 404.696 45.9667 405.429 45.9C406.162 45.8333 406.662 45.7667 406.929 45.7C407.396 43.9667 407.729 42.3667 407.929 40.9C408.196 39.3667 408.329 38 408.329 36.8C408.329 34.8 408.029 33.3333 407.429 32.4C406.829 31.4667 405.862 31 404.529 31C402.662 31 400.896 32.2667 399.229 34.8C397.562 37.2667 396.262 40.6 395.329 44.8ZM411.529 59.7C413.462 60.0333 415.429 60.7333 417.429 61.8C419.429 62.8667 421.096 64.0667 422.429 65.4C421.162 69.1333 418.362 72.4667 414.029 75.4C409.696 78.2667 404.762 79.7 399.229 79.7C392.896 79.7 387.962 77.6667 384.429 73.6C380.896 69.4667 379.129 63.9 379.129 56.9C379.129 48.0333 381.762 40.1667 387.029 33.3C392.362 26.3667 398.562 22.9 405.629 22.9C410.562 22.9 414.462 24.2667 417.329 27C420.262 29.6667 421.729 33.2667 421.729 37.8C421.729 39.9333 421.496 42.2333 421.029 44.7C420.629 47.1667 420.062 49.4 419.329 51.4C417.596 52.2 415.462 52.8 412.929 53.2C410.396 53.5333 407.262 53.7 403.529 53.7C401.996 53.7 400.429 53.6 398.829 53.4C397.296 53.2 395.729 52.9 394.129 52.5C394.062 53.5667 393.996 54.3667 393.929 54.9C393.929 55.4333 393.929 55.9333 393.929 56.4C393.929 60.9333 394.596 64.5 395.929 67.1C397.329 69.7 399.229 71 401.629 71C403.496 71 405.396 69.8333 407.329 67.5C409.329 65.1667 410.729 62.5667 411.529 59.7ZM442.031 55.4C442.231 59.4 442.531 63.3 442.931 67.1C443.331 70.8333 443.831 74.5 444.431 78.1C443.298 78.5 441.998 78.7667 440.531 78.9C439.065 79.1 437.398 79.1667 435.531 79.1C434.465 79.0333 433.598 78.9333 432.931 78.8C432.265 78.7333 431.598 78.5667 430.931 78.3C429.198 70.1 427.965 61.1333 427.231 51.4C426.498 41.6 426.431 32.6667 427.031 24.6C428.031 24.2 429.165 23.9333 430.431 23.8C431.698 23.6 433.231 23.5 435.031 23.5C436.698 23.5 438.231 23.6333 439.631 23.9C441.031 24.1 442.298 24.4333 443.431 24.9C443.165 26.3 442.931 27.8333 442.731 29.5C442.531 31.1667 442.365 32.9 442.231 34.7C443.831 30.4333 445.865 27.0667 448.331 24.6C450.798 22.1333 453.331 20.9 455.931 20.9C459.198 20.9 461.731 22.2333 463.531 24.9C465.331 27.5 466.231 31.2333 466.231 36.1C466.231 37.2333 466.231 38.1333 466.231 38.8C466.231 39.4 466.198 39.9667 466.131 40.5C464.531 41.0333 462.565 41.4 460.231 41.6C457.965 41.7333 455.565 41.7333 453.031 41.6C453.098 40.2667 453.131 39.3667 453.131 38.9C453.198 38.3667 453.231 37.9 453.231 37.5C453.231 35.6333 452.998 34.2333 452.531 33.3C452.131 32.3667 451.465 31.9 450.531 31.9C448.865 31.9 447.231 34.0333 445.631 38.3C444.098 42.5 442.898 48.2 442.031 55.4Z" fill="#ffffff"/>
</svg>
