<svg xmlns="http://www.w3.org/2000/svg" height="40" viewBox="0 -960 960 960" width="40" fill="#6d7070"><path d="M186.666-120q-27.5 0-47.083-19.583T120-186.666v-586.668q0-27.5 19.583-47.083T186.666-840h586.668q12 0 22 4.5t17 10.834l-53.999 53.999v-2.667H186.666v586.668h586.668v-317.335L840-570.667v384.001q0 27.5-19.583 47.083T773.334-120H186.666ZM461-378.666l354-354.001q9.667-9.666 23-9.666 13.334 0 23.333 9.666 10 9.667 10 23.464 0 13.797-10 23.536l-377 377q-10 10-23.333 10-13.333 0-23.333-10L261-485.334q-9.667-9.666-9.667-23.333 0-13.666 9.667-23.333 9.667-9.667 23.333-9.667 13.667 0 23.333 9.667L461-378.666Z"/></svg>