<svg xmlns="http://www.w3.org/2000/svg" height="40" viewBox="0 -960 960 960" width="40" fill="#ffffff"><path d="M280.309-118.668q-33.609 0-56.753-23.144t-23.144-56.753v-538.717h-15.283q-13.679 0-23.57-10.052-9.89-10.053-9.89-24t9.882-23.741q9.882-9.795 23.578-9.795h167.589q0-15.128 10.245-25.487 10.246-10.359 25.601-10.359H572.77q15.355 0 25.6 10.246 10.245 10.245 10.245 25.6h167.589q13.979 0 24.053 9.93 10.074 9.929 10.074 23.876 0 13.947-10.074 23.865-10.074 9.917-24.053 9.917h-15.283v538.717q0 33.609-23.144 56.753t-56.752 23.144H280.309Zm413.024-618.614H268v538.717q0 5.385 3.59 8.847 3.59 3.462 8.719 3.462h400.716q5.128 0 8.718-3.462t3.59-8.847v-538.717ZM399.457-270.231q13.748 0 23.876-9.882 10.128-9.883 10.128-23.578v-316.823q0-13.729-10.113-23.928-10.113-10.199-24.149-10.199-13.753 0-23.54 10.199-9.786 10.199-9.786 23.928v316.823q0 13.695 9.918 23.578 9.918 9.882 23.666 9.882Zm162.666 0q13.748 0 23.876-9.882 10.128-9.883 10.128-23.578v-316.823q0-13.729-10.113-23.928-10.113-10.199-24.149-10.199-13.754 0-23.54 10.199t-9.786 23.928v316.823q0 13.695 9.918 23.578 9.918 9.882 23.666 9.882ZM268-737.282v551.026-551.026Z"/></svg>