<svg xmlns="http://www.w3.org/2000/svg" height="40" viewBox="0 -960 960 960" width="40" fill="#6d7070"><path d="M186.256-186.256h44.102l435.515-434.838-44.102-44.035-435.515 434.837v44.036Zm-27.306 67.588q-17.134 0-28.708-11.574-11.574-11.574-11.574-28.708v-65.665q0-15.83 6.382-30.877 6.381-15.047 17.721-26.096l546.384-547.411q6.843-5.83 15.113-8.876 8.271-3.046 17.403-3.046 8.722 0 16.141 2.32 7.419 2.321 15.034 8.474l76.896 76.768q6.564 7.359 9.077 15.44 2.513 8.08 2.513 16.494 0 9.091-3.044 17.4-3.043 8.309-8.709 14.314l-547.991 546.94q-11.049 11.34-26.096 17.721-15.047 6.382-30.877 6.382H158.95Zm606.768-603.256-43.384-42.794 43.384 42.794Zm-120.877 78.75-23.07-21.955 44.102 43.768-21.032-21.813Z"/></svg>